<?xml version="1.0" standalone="no"?><!DOCTYPE svg PUBLIC "-//W3C//DTD SVG 1.1//EN" "http://www.w3.org/Graphics/SVG/1.1/DTD/svg11.dtd"><svg class="icon" width="200px" height="200.00px" viewBox="0 0 1024 1024" version="1.1" xmlns="http://www.w3.org/2000/svg"><path d="M866.461538 39.384615c66.953846 0 118.153846 51.2 118.153847 118.153847v708.923076c0 66.953846-51.2 118.153846-118.153847 118.153847H157.538462c-66.953846 0-118.153846-51.2-118.153847-118.153847V157.538462c0-66.953846 51.2-118.153846 118.153847-118.153847h708.923076m0-39.384615H157.538462C70.892308 0 0 70.892308 0 157.538462v708.923076c0 86.646154 70.892308 157.538462 157.538462 157.538462h708.923076c86.646154 0 157.538462-70.892308 157.538462-157.538462V157.538462c0-86.646154-70.892308-157.538462-157.538462-157.538462z"  /><path d="M118.153846 315.076923h393.846154v39.384615H118.153846zM866.461538 433.230769c0-66.953846-51.2-118.153846-118.153846-118.153846s-118.153846 51.2-118.153846 118.153846v256c0 11.815385 7.876923 19.692308 19.692308 19.692308h196.923077c11.815385 0 19.692308-7.876923 19.692307-19.692308v-236.307692-7.876923-11.815385z m-118.153846-78.769231c43.323077 0 78.769231 35.446154 78.769231 78.769231s-35.446154 78.769231-78.769231 78.769231-78.769231-35.446154-78.76923-78.769231 35.446154-78.769231 78.76923-78.769231z m0 196.923077c31.507692 0 59.076923-11.815385 78.769231-27.56923V669.538462h-157.538461v-145.723077c19.692308 15.753846 47.261538 27.569231 78.76923 27.56923zM118.153846 433.230769h393.846154v39.384616H118.153846zM118.153846 551.384615h393.846154v39.384616H118.153846zM118.153846 669.538462h393.846154v39.384615H118.153846z"  /></svg>